<?xml version="1.0" encoding="UTF-8"?>
<svg xmlns="http://www.w3.org/2000/svg" width="221" height="60" viewBox="0 0 221 60" fill="none">
  <g clip-path="url(#clip0_308_224)">
    <g clip-path="url(#clip1_308_224)">
      <path d="M35.6024 55.6756H38.7295V56.6371H35.6024V55.6756ZM35.6922 58.3714H39.2417V59.3509H34.524V53.0606H39.1159V54.0401H35.6922V58.3714ZM46.6545 59.3509V53.0606H47.616L51.5609 57.9041H51.0847V53.0606H52.2439V59.3509H51.2824L47.3375 54.5074H47.8137V59.3509H46.6545ZM61.3159 59.3509V54.0491H59.2312V53.0606H64.5689V54.0491H62.4841V59.3509H61.3159ZM72.6344 55.6756H75.7616V56.6371H72.6344V55.6756ZM72.7243 58.3714H76.2738V59.3509H71.5561V53.0606H76.148V54.0401H72.7243V58.3714ZM83.6866 59.3509V53.0606H86.2746C86.8317 53.0606 87.308 53.1505 87.7034 53.3302C88.1048 53.5099 88.4133 53.7675 88.629 54.103C88.8446 54.4385 88.9525 54.8369 88.9525 55.2982C88.9525 55.7595 88.8446 56.1578 88.629 56.4933C88.4133 56.8228 88.1048 57.0774 87.7034 57.2571C87.308 57.4309 86.8317 57.5177 86.2746 57.5177H84.3336L84.8548 56.9876V59.3509H83.6866ZM87.8022 59.3509L86.2117 57.0684H87.4608L89.0603 59.3509H87.8022ZM84.8548 57.1134L84.3336 56.5562H86.2207C86.7359 56.5562 87.1223 56.4454 87.3799 56.2237C87.6435 56.0021 87.7753 55.6936 87.7753 55.2982C87.7753 54.8968 87.6435 54.5883 87.3799 54.3726C87.1223 54.1569 86.7359 54.0491 86.2207 54.0491H84.3336L84.8548 53.474V57.1134ZM97.5582 59.3509V54.0491H95.4735V53.0606H100.811V54.0491H98.7264V59.3509H97.5582ZM106.593 59.3509L109.423 53.0606H110.574L113.413 59.3509H112.191L109.756 53.6807H110.223L107.797 59.3509H106.593ZM107.896 57.8951L108.21 56.9786H111.607L111.922 57.8951H107.896ZM120.324 59.3509V53.0606H121.492V59.3509H120.324ZM129.304 59.3509V53.0606H130.265L134.21 57.9041H133.734V53.0606H134.893V59.3509H133.932L129.987 54.5074H130.463V59.3509H129.304ZM142.689 59.3509V53.0606H143.651L146.401 57.6525H145.897L148.602 53.0606H149.564L149.573 59.3509H148.467L148.458 54.795H148.692L146.392 58.632H145.87L143.534 54.795H143.804V59.3509H142.689ZM158.461 55.6756H161.588V56.6371H158.461V55.6756ZM158.55 58.3714H162.1V59.3509H157.382V53.0606H161.974V54.0401H158.55V58.3714ZM169.513 59.3509V53.0606H170.474L174.419 57.9041H173.943V53.0606H175.102V59.3509H174.141L170.196 54.5074H170.672V59.3509H169.513ZM184.174 59.3509V54.0491H182.089V53.0606H187.427V54.0491H185.342V59.3509H184.174Z" fill="white"></path>
      <path fill-rule="evenodd" clip-rule="evenodd" d="M6.58383 28.066L1.01526 40.5596H10.6723L14.3012 31.8333H33.1782L36.793 40.5596H46.6827L38.3068 21.8274C35.3542 22.2678 32.455 22.7344 29.6127 23.226L30.2141 24.6778H21.7529C20.0996 25.0032 18.4683 25.3375 16.8599 25.6804C15.1652 26.0417 13.4958 26.4126 11.8527 26.7927C10.0649 27.2063 8.3082 27.6308 6.58383 28.066ZM213.781 26.6178L201.806 -0.163025H192.498L183.23 20.6304C186.112 21.064 188.944 21.5224 191.721 22.0048L197.09 9.0926L203.362 24.2327C204.061 24.3795 204.755 24.5278 205.445 24.6778C205.962 24.7901 206.477 24.9034 206.989 25.0175C209.303 25.5331 211.568 26.0668 213.781 26.6178ZM207.501 26.4478C206.332 26.1842 205.151 25.9252 203.958 25.6709C202.364 25.3313 200.748 25.0002 199.11 24.6778H190.609L191.215 23.2201C188.427 22.738 185.583 22.28 182.688 21.8472L174.348 40.5596H184.005L187.634 31.8333H206.51L210.125 40.5596H220.015L214.448 28.1087C212.187 27.5366 209.87 26.9827 207.501 26.4478ZM170.065 18.8671V-0.163025H160.757V17.8658C163.904 18.172 167.008 18.5061 170.065 18.8671ZM160.757 19.1556C163.905 19.4627 167.008 19.7978 170.065 20.1598V40.5596H162.328L143.626 17.7923C147.808 18.0522 151.928 18.3602 155.981 18.7142L160.757 24.5427V19.1556ZM154.845 17.328L140.512 -0.163025H132.716V15.9454C135.849 16.0737 138.953 16.2286 142.024 16.4094V15.8427L142.514 16.4384C146.685 16.6879 150.798 16.9851 154.845 17.328ZM142.024 17.6953C138.953 17.5141 135.849 17.3588 132.716 17.2302V40.5596H142.024V17.6953ZM103.053 15.5421V7.39974H124.461V-0.163025H93.6869V15.7474C96.7835 15.6528 99.9064 15.5841 103.053 15.5421ZM86.1652 16.0302C86.2017 15.5683 86.22 15.0961 86.22 14.6135C86.22 11.5496 85.5025 8.91229 84.0675 6.70164C82.6325 4.49098 80.5964 2.80391 77.9591 1.64041C75.3218 0.438119 72.1804 -0.163025 68.5348 -0.163025H50.9077V18.8542C54.0025 18.4894 57.1451 18.1523 60.3321 17.8438V7.51609H68.0112C70.9199 7.51609 73.0918 8.13663 74.5268 9.3777C75.9618 10.6188 76.6793 12.364 76.6793 14.6135C76.6793 15.3061 76.6088 15.9531 76.4679 16.5544C79.6658 16.3513 82.8993 16.1762 86.1652 16.0302ZM76.0136 17.8698C79.3087 17.657 82.6424 17.4741 86.0111 17.3222C85.7033 19.2302 85.0554 20.9451 84.0675 22.4671C82.6325 24.639 80.5964 26.3067 77.9591 27.4702C77.9326 27.4819 77.9059 27.4935 77.8793 27.5051L86.9763 40.5596H76.7956L68.9778 29.2125C68.8309 29.2144 68.6833 29.2154 68.5348 29.2154H60.3321V40.5596H50.9077V20.1468C54.0019 19.7811 57.1445 19.443 60.3321 19.1336V21.7108H68.0112C70.9199 21.7108 73.0918 21.0903 74.5268 19.8492C75.1637 19.2811 75.6593 18.6213 76.0136 17.8698ZM37.7628 20.6108L28.4739 -0.163025H19.1659L7.24772 26.5765C8.92053 26.1611 10.6228 25.7556 12.3535 25.3604C13.3652 25.1293 14.3867 24.9018 15.4176 24.6778C16.0938 24.5308 16.774 24.3854 17.4583 24.2416L23.7581 9.0926L29.1092 22.0104C31.9388 21.5187 34.8245 21.0518 37.7628 20.6108ZM93.6869 17.0317C96.5541 16.9439 99.4441 16.8784 102.355 16.8358C102.588 16.8324 102.82 16.8291 103.053 16.826C105.498 16.7933 107.958 16.7768 110.431 16.7768C114.308 16.7768 118.153 16.8174 121.96 16.8972V23.5724H103.053V32.9968H125.218V40.5596H93.6869V17.0317Z" fill="url(#paint0_linear_308_224)"></path>
      <path d="M213.876 3.73458V0.650541H212.683V0H215.803V0.650541H214.599V3.73458H213.876ZM216.382 3.73458V0H217.261L217.827 1.39746L218.165 2.33713H218.213L218.55 1.39746L219.104 0H219.972V3.73458H219.309V2.08414L219.393 0.819199H219.345L218.466 3.15633H217.9L217.02 0.819199H216.972L217.056 2.08414V3.73458H216.382Z" fill="white"></path>
    </g>
  </g>
  <defs>
    <linearGradient id="paint0_linear_308_224" x1="110.515" y1="40.5596" x2="110.515" y2="-0.163025" gradientUnits="userSpaceOnUse">
      <stop stop-color="#07D102"></stop>
      <stop offset="1" stop-color="#046B01"></stop>
    </linearGradient>
    <clipPath id="clip0_308_224">
      <rect width="221" height="60" fill="white"></rect>
    </clipPath>
    <clipPath id="clip1_308_224">
      <rect width="219" height="61.32" fill="white" transform="translate(1)"></rect>
    </clipPath>
  </defs>
</svg>
