<svg width="299" height="41" viewBox="0 0 299 41" fill="none" xmlns="http://www.w3.org/2000/svg">
<path d="M38.6078 26.256V22.3446C38.6078 19.3192 36.0888 16.7876 33.0635 16.7876H8.49371V26.2433C8.49371 29.2687 10.9494 31.7244 13.9748 31.7244H33.0508C36.1394 31.7244 38.5951 29.2687 38.5951 26.2433M33.0508 8.29387C40.7977 8.29387 47.0889 14.585 47.0889 22.3319V26.2433C47.0889 33.9522 40.7977 40.2434 33.0508 40.2434H13.9748C6.29117 40.2434 0 33.9396 0 26.2433V0.00268555H8.49371V8.30653H33.0508V8.29387Z" fill="#F04923"/>
<path d="M86.342 20.3067C89.4939 20.3067 89.4939 19.3194 89.4939 18.6358C89.4939 16.9017 87.7218 16.9017 86.342 16.9017H64.671C62.4685 16.9017 60.4558 18.2688 59.5697 20.3067H86.342ZM86.342 8.38263C92.6965 8.38263 97.9876 11.7877 97.9876 18.6358C97.9876 25.484 92.6965 28.8258 86.342 28.8258H59.8229C60.7596 30.6232 62.6583 31.7372 64.671 31.7372H79.5951V40.2562H64.671C56.9874 40.2562 50.6836 33.965 50.6836 26.3068V22.3954C50.6836 14.7118 56.9874 8.39529 64.671 8.39529H86.342V8.38263Z" fill="#F04923"/>
<path d="M186.974 26.256V22.3446C186.974 19.3192 184.455 16.7876 181.43 16.7876H156.86V26.2433C156.86 29.2687 159.316 31.7244 162.341 31.7244H181.43C184.518 31.7244 186.974 29.2687 186.974 26.2433M181.43 8.29387C189.176 8.29387 195.468 14.585 195.468 22.3319V26.2433C195.468 33.9522 189.176 40.2434 181.43 40.2434H162.341C154.657 40.2434 148.354 33.9396 148.354 26.2433V0.00268555H156.847V8.30653H181.417L181.43 8.29387Z" fill="#F04923"/>
<path d="M186.974 26.256V22.3446C186.974 19.3192 184.455 16.7876 181.43 16.7876H156.86V26.2433C156.86 29.2687 159.316 31.7244 162.341 31.7244H181.43C184.518 31.7244 186.974 29.2687 186.974 26.2433M181.43 8.29387C189.176 8.29387 195.468 14.585 195.468 22.3319V26.2433C195.468 33.9522 189.176 40.2434 181.43 40.2434H162.341C154.657 40.2434 148.354 33.9396 148.354 26.2433V0.00268555H156.847V8.30653H181.417L181.43 8.29387Z" fill="#F04923"/>
<path d="M237.798 26.256V22.3446C237.798 19.3193 235.279 16.7876 232.253 16.7876H213.038C210.013 16.7876 207.557 19.3066 207.557 22.3446V26.256C207.557 29.2814 210.013 31.7371 213.038 31.7371H232.253C235.279 31.7371 237.798 29.2814 237.798 26.256ZM232.253 8.28125C239.937 8.28125 246.228 14.5851 246.228 22.3573V26.2687C246.228 33.9649 239.937 40.2688 232.253 40.2688H213.038C205.355 40.2688 199.051 33.9649 199.051 26.2687V22.3573C199.051 14.5851 205.355 8.28125 213.038 8.28125H232.253Z" fill="#F04923"/>
<path d="M289.56 26.256V22.3446C289.56 19.3193 287.041 16.7876 284.028 16.7876H264.825C261.8 16.7876 259.332 19.3066 259.332 22.3446V26.256C259.332 29.2814 261.787 31.7371 264.825 31.7371H284.028C287.041 31.7371 289.56 29.2814 289.56 26.256ZM284.028 8.28125C291.712 8.28125 298.003 14.5851 298.003 22.3573V26.2687C298.003 33.9649 291.699 40.2688 284.028 40.2688H264.825C257.142 40.2688 250.838 33.9649 250.838 26.2687V22.3573C250.838 14.5851 257.129 8.28125 264.825 8.28125H284.028Z" fill="#F04923"/>
<path d="M144.279 16.8509V8.33184H127.912V0.00268555H119.469V8.33184H102.152V16.8509H119.469V26.5471H119.482C119.633 34.1168 125.811 40.2687 133.342 40.2687H136.899V31.7497H133.342C130.342 31.7497 127.899 29.294 127.899 26.2686V22.8003V16.8635H144.266L144.279 16.8509Z" fill="#F04923"/>
</svg>
