<svg width="298" height="107" viewBox="0 0 298 107" fill="none" xmlns="http://www.w3.org/2000/svg">
<path d="M298 8.21566C298 11.7084 295.196 14.5221 291.768 14.5221C288.339 14.5221 285.535 11.7084 285.535 8.21566C285.535 4.72292 288.313 2.00952 291.768 2.00952C295.222 2.00952 298 4.79741 298 8.21566ZM295.999 8.21566C295.999 5.8289 294.197 3.86907 291.793 3.86907C289.389 3.86907 287.562 5.8289 287.562 8.21566C287.562 10.6024 289.315 12.588 291.793 12.588C294.271 12.588 295.999 10.6282 295.999 8.21566ZM292.944 8.41622C293.969 8.49072 294.397 8.89472 294.397 9.72278V10.0494C294.397 10.5279 294.423 10.8288 294.523 11.2041H292.895C292.795 11.0035 292.744 10.6769 292.744 10.0494V9.77435C292.744 9.24715 292.493 9.02079 291.993 9.02079H291.017V11.207H289.341V5.2272H292.521C293.772 5.2272 294.574 5.85469 294.574 6.91197C294.574 7.7916 293.974 8.31881 292.947 8.41909L292.944 8.41622ZM292.792 7.13546C292.792 6.75724 292.567 6.58246 292.142 6.58246H291.014V7.76295H292.09C292.567 7.76295 292.792 7.56238 292.792 7.13546Z" fill="black"/>
<path d="M83.8052 12.3961C70.0386 12.3961 54.5391 17.9976 54.5391 43.2634C54.5391 68.5292 67.6833 74.254 83.8052 74.254C99.9271 74.254 113.071 68.2799 113.071 43.2634C113.071 18.2469 97.5689 12.3961 83.8052 12.3961ZM93.5092 39.467C93.5092 43.8193 91.7505 48.7189 83.8223 48.7189C75.8941 48.7189 74.0983 44.5642 74.0983 39.4698C74.0983 34.3754 75.9741 30.2179 83.8223 30.2179C91.6706 30.2179 93.5092 35.1175 93.5092 39.467Z" fill="black"/>
<path d="M145.842 12.3961C132.076 12.3961 116.576 17.9976 116.576 43.2634C116.576 68.5292 129.72 74.254 145.842 74.254C161.964 74.254 175.108 68.2799 175.108 43.2634C175.108 18.2469 159.606 12.3961 145.842 12.3961ZM155.546 39.467C155.546 43.8193 153.788 48.7189 145.859 48.7189C137.931 48.7189 136.135 44.5642 136.135 39.4698C136.135 34.3754 138.011 30.2179 145.859 30.2179C153.708 30.2179 155.546 35.1175 155.546 39.467Z" fill="black"/>
<path d="M20.7412 12.823V0.13562H0V32.8683C1.2105 32.2465 7.28584 30.3784 13.1157 30.3784C18.9455 30.3784 26.6339 31.1262 26.6339 39.7133C26.6339 48.3005 18.4173 48.6759 13.1785 48.6759C7.59703 48.6759 0.00285495 46.0627 0.00285495 46.0627V70.7068C0.00285495 70.7068 8.09379 74.1909 20.7441 74.1909C31.2846 74.1909 50.23 69.4604 50.1986 41.146C50.1672 15.0263 33.0204 12.8258 20.7441 12.823H20.7412Z" fill="black"/>
<path d="M226.732 14.5736V33.6161C223.26 32.619 215.88 30.9399 210.981 30.9399C207.664 30.9399 203.664 31.0632 203.664 33.9571C203.664 35.9799 205.585 36.7879 212.717 36.7879C221.413 36.7879 230.512 41.1431 230.512 53.9021C230.512 66.661 219.786 74.1909 204.22 74.1909C188.655 74.1909 179.479 70.5205 179.479 70.5205V45.9395C182.517 46.7475 190.888 48.6157 197.463 48.6157C202.904 48.6157 202.859 45.8622 202.859 45.0542C202.859 44.2462 202.208 42.9998 198.579 42.9998C194.254 42.9998 179.18 42.2061 179.325 27.4587C179.465 13.2699 200.58 12.4304 205.088 12.3359C209.599 12.2413 220.793 13.0837 226.729 14.5765L226.732 14.5736Z" fill="black"/>
<path d="M233.706 18.1208V34.0201H246.388C246.388 34.0201 233.646 39.6217 233.646 52.8448C233.646 68.5264 250.482 74.1909 263.038 74.1909C275.594 74.1909 282.6 70.3945 282.6 70.3945V46.8077C282.6 46.8077 276.337 49.2976 270.804 49.2976C265.271 49.2976 258.804 47.7103 258.804 39.6819C258.71 35.5272 260.432 33.9886 260.432 33.9886H282.6V14.5737H260.309V1.90924H258.944L233.706 18.1208Z" fill="black"/>
<path d="M101.126 105.328C100.118 105.846 98.5705 106.104 96.4892 106.104C93.4201 106.104 90.9734 105.259 89.1491 103.571C87.3248 101.884 86.4141 99.4911 86.4141 96.4023C86.4141 93.0443 87.5018 90.2392 89.6801 87.9928C91.8585 85.7465 94.879 84.6233 98.7417 84.6233C99.7067 84.6233 100.572 84.6863 101.334 84.8095C102.096 84.9356 102.627 85.0531 102.927 85.1706L103.347 85.3711L102.736 90.669C101.876 90.1704 100.655 89.9211 99.0644 89.9211C97.3057 89.9211 95.9353 90.477 94.9589 91.5916C93.9825 92.7062 93.4944 94.1732 93.4944 95.9983C93.4944 97.5141 93.9083 98.6917 94.7334 99.5255C95.5585 100.359 96.6376 100.778 97.9681 100.778C98.6561 100.778 99.3099 100.715 99.9323 100.591C100.555 100.468 100.994 100.336 101.251 100.202L101.671 100.03L101.123 105.328H101.126Z" fill="black"/>
<path d="M115.839 105.674L115.291 102.709H109.022L107.786 105.674H101.83L110.592 85.056H118.317L122.6 105.674H115.839ZM114.74 97.6688L113.647 91.6203L111.126 97.6688H114.743H114.74Z" fill="black"/>
<path d="M123.982 105.356L124.593 100.116C126.309 100.557 128.102 100.778 129.969 100.778C132.33 100.778 133.509 100.316 133.509 99.3965C133.509 99.1272 133.381 98.8922 133.124 98.6917C132.867 98.4911 132.57 98.3278 132.239 98.2017C131.905 98.0785 131.422 97.9095 130.791 97.6974C130.158 97.4854 129.627 97.2848 129.198 97.0929C127.782 96.4797 126.746 95.729 126.092 94.8465C125.438 93.964 125.11 92.8895 125.11 91.6202C125.11 89.4713 126.001 87.7665 127.782 86.5086C129.564 85.2508 131.913 84.6233 134.831 84.6233C136.01 84.6233 137.095 84.6863 138.083 84.8095C139.071 84.9356 139.767 85.0531 140.176 85.1706L140.787 85.3711L140.176 90.5544C138.76 90.1131 137.161 89.8925 135.379 89.8925C134.24 89.8925 133.389 90.0186 132.821 90.2678C132.253 90.5171 131.968 90.8523 131.968 91.2764C131.968 91.3738 131.985 91.4684 132.016 91.5629C132.048 91.6603 132.102 91.7463 132.176 91.8208C132.25 91.8982 132.327 91.9698 132.402 92.0357C132.476 92.1045 132.59 92.1761 132.739 92.2506C132.887 92.328 133.018 92.391 133.124 92.4368C133.232 92.4855 133.387 92.5486 133.592 92.6231C133.795 92.7004 133.963 92.7635 134.092 92.8093C134.22 92.858 134.409 92.9239 134.654 93.0099C134.9 93.0958 135.1 93.1675 135.251 93.2248C137.052 93.8781 138.346 94.666 139.131 95.5857C139.913 96.5084 140.307 97.7175 140.307 99.2132C140.307 101.325 139.391 103.004 137.555 104.253C135.719 105.502 133.193 106.124 129.975 106.124C128.836 106.124 127.771 106.055 126.772 105.924C125.772 105.789 125.059 105.666 124.631 105.548L123.985 105.348L123.982 105.356Z" fill="black"/>
<path d="M141.881 105.674L144.322 85.056H151.054L148.613 105.674H141.881Z" fill="black"/>
<path d="M165.511 105.674L159.202 94.9898L157.914 105.674H151.99L154.445 85.056H160.395L166.699 95.858L167.927 85.056H173.851L171.467 105.674H165.511Z" fill="black"/>
<path d="M184.952 106.107C181.689 106.107 179.236 105.19 177.595 103.356C175.953 101.523 175.131 99.1845 175.131 96.345C175.131 92.9268 176.176 90.1217 178.268 87.9212C180.361 85.7236 183.21 84.6233 186.816 84.6233C188.555 84.6233 190.068 84.8783 191.356 85.3854C192.643 85.8955 193.662 86.6089 194.413 87.5315C195.164 88.4541 195.721 89.4799 196.086 90.6117C196.452 91.7434 196.634 93.0013 196.634 94.3852C196.634 97.7633 195.584 100.563 193.48 102.78C191.376 104.998 188.532 106.107 184.949 106.107H184.952ZM185.434 100.78C186.613 100.78 187.596 100.199 188.381 99.0384C189.163 97.8779 189.557 96.3651 189.557 94.5027C189.557 93.0242 189.283 91.8953 188.735 91.1188C188.187 90.3423 187.387 89.9527 186.337 89.9527C185.157 89.9527 184.175 90.5343 183.39 91.6947C182.608 92.8552 182.214 94.368 182.214 96.2304C182.214 97.7089 182.488 98.8378 183.036 99.6143C183.584 100.391 184.384 100.78 185.434 100.78Z" fill="black"/>
</svg>
