<svg width="298" height="116" viewBox="0 0 298 116" fill="none" xmlns="http://www.w3.org/2000/svg">
<path d="M111.677 102.245C104.002 102.245 96.5646 102.245 88.9643 102.245C87.2472 80.9188 85.5328 59.6404 83.8047 38.1743C92.319 37.1013 100.717 36.042 109.337 34.9539C108.658 48.1564 107.987 61.2383 107.315 74.3216C107.414 74.3477 107.514 74.3723 107.613 74.3984C113.874 61.5891 120.136 48.7799 126.403 35.9584C134.171 35.9584 141.869 35.9584 149.639 35.9584C149.752 48.6826 149.864 61.3109 149.975 73.9379C150.038 73.9544 150.101 73.9708 150.165 73.9872C150.323 73.6337 150.503 73.2883 150.634 72.9252C154.037 63.4694 158.048 54.2629 162.047 45.0497C163.246 42.2855 164.457 39.5283 165.626 36.7518C165.911 36.0735 166.279 35.7925 167.052 35.7967C174.953 35.8268 182.857 35.8158 190.76 35.82C191.021 35.82 191.285 35.8597 191.555 35.8816C191.353 36.8834 181.159 54.7453 172.748 69.1127C166.314 80.1048 160.016 91.1736 153.657 102.209C145.928 102.209 138.272 102.209 130.438 102.209C130.349 89.6154 130.26 77.0912 130.173 64.567C130.118 64.5547 130.064 64.5424 130.009 64.53C123.899 77.0994 117.789 89.6688 111.677 102.245Z" fill="black"/>
<path d="M0 98.8549C0.685205 96.9788 1.45401 95.2686 1.93365 93.4802C3.25746 88.5453 4.49769 83.5858 5.70365 78.6208C9.16119 64.3864 12.5913 50.1465 16.0215 35.9052C17.3686 30.3125 18.6321 24.6966 19.357 18.9861C19.7065 16.2329 19.7202 13.4373 19.8888 10.6608C19.8997 10.4841 19.9285 10.3086 19.9669 9.98797C28.8732 8.88616 37.7685 7.78435 46.8625 6.65924C46.8625 7.3143 46.8612 7.8049 46.8625 8.29414C46.8831 12.8809 46.1677 17.3896 45.3962 21.89C44.5548 26.8002 43.3639 31.6267 41.9181 36.393C41.8318 36.6794 41.7879 36.9796 41.7029 37.3729C43.2721 36.7767 44.6891 36.1655 46.1513 35.6941C52.1811 33.7509 58.3027 33.5946 64.375 35.2953C71.963 37.4208 76.2441 42.6325 77.5666 50.3246C78.3833 55.0731 77.9654 59.79 77.0225 64.4768C75.0944 74.0697 71.1613 82.7129 64.6313 90.0569C58.3246 97.1502 50.5298 101.726 41.115 103.305C38.6497 103.719 36.1226 103.868 33.6189 103.939C22.6131 104.254 11.8582 102.73 1.37863 99.3291C0.918175 99.1811 0.459087 99.0139 0 98.8549ZM30.0339 84.8247C34.0944 87.5148 39.6446 86.8899 42.8651 83.5022C44.3958 81.892 45.4743 79.9885 46.3212 77.9576C48.5989 72.4896 49.9967 66.7832 50.6257 60.9069C50.7984 59.3008 50.6668 57.6152 50.3831 56.0173C50.009 53.9096 48.5591 52.7352 46.4336 52.4063C43.4845 51.9499 40.8341 52.6804 38.3961 54.3481C37.4876 54.9703 36.9737 55.7501 36.7147 56.8601C35.0688 63.9205 33.3476 70.9644 31.6551 78.0137C31.1124 80.2722 30.5793 82.5306 30.0339 84.8247Z" fill="black"/>
<path d="M286.113 102.253C277.534 102.253 269.094 102.253 260.473 102.253C260.601 101.656 260.7 101.14 260.825 100.631C264.003 87.5953 267.197 74.5627 270.342 61.5192C270.659 60.2036 270.826 58.814 270.804 57.4614C270.764 54.9809 269.306 53.6078 266.845 53.4735C265.547 53.4022 264.299 53.6229 263.091 54.0984C260.471 55.1303 258.355 56.8282 256.675 59.0648C256.359 59.4855 256.153 60.0282 256.026 60.5475C252.716 73.9269 249.424 87.3103 246.127 100.692C246.008 101.176 245.865 101.654 245.712 102.215C237.207 102.215 228.733 102.215 220.132 102.215C220.177 101.864 220.187 101.52 220.266 101.193C223.548 87.7598 226.855 74.3325 230.117 60.8943C231.475 55.2989 232.635 49.6624 232.737 43.8738C232.771 41.8716 232.652 39.8653 232.601 37.8275C233.469 37.4315 253.267 34.8729 255.198 34.9483C255.915 36.8052 256.065 38.8074 256.37 40.8698C256.587 40.7986 256.807 40.7739 256.971 40.6656C261.021 38.0153 265.554 36.664 270.244 35.7568C273.616 35.1045 277.023 34.7688 280.461 34.9401C283.257 35.0798 286.001 35.5376 288.608 36.5996C293.668 38.6594 296.693 42.3951 297.659 47.7685C298.326 51.4768 297.957 55.1495 297.054 58.7674C293.543 72.8483 290.001 86.9197 286.469 100.995C286.369 101.39 286.247 101.78 286.113 102.253Z" fill="black"/>
<path d="M197.101 37.885C205.887 36.9861 214.582 36.0967 223.474 35.1867C217.954 57.6697 212.486 79.9416 207.015 102.23C198.425 102.23 189.955 102.23 181.277 102.23C186.566 80.7282 191.823 59.3484 197.101 37.885Z" fill="black"/>
<path d="M213.658 0.293327C220.667 0.193287 227.608 5.72563 227.706 14.2921C227.797 22.0828 221.42 28.3497 213.575 28.3456C205.852 28.3429 199.562 22.0157 199.587 14.2784C199.612 6.52869 205.881 0.297438 213.658 0.293327Z" fill="black"/>
<path d="M213.658 0.293327C220.667 0.193287 227.608 5.72563 227.706 14.2921C227.797 22.0828 221.42 28.3497 213.575 28.3456C205.852 28.3429 199.562 22.0157 199.587 14.2784C199.612 6.52869 205.881 0.297438 213.658 0.293327Z" fill="#FFCA05"/>
</svg>
