<svg xmlns="http://www.w3.org/2000/svg" width="56" height="57" viewBox="0 0 56 57" fill="none" class="size-[52px] opacity-75 lg:size-[60px]"><path fill-rule="evenodd" clip-rule="evenodd" d="M43.5 1.09881e-06H43.436H43.436C42.5587 -2.24343e-05 41.8017 -4.27367e-05 41.1752 0.0427029C40.5156 0.087711 39.8558 0.186718 39.2039 0.456726C37.7337 1.06569 36.5657 2.23373 35.9567 3.7039C35.6867 4.35576 35.5877 5.01558 35.5427 5.67524C35.5 6.30175 35.5 7.05872 35.5 7.93601V7.93604V8V10H31.5V27H55.5V10H51.5V8V7.93602C51.5 7.05873 51.5 6.30175 51.4573 5.67524C51.4123 5.01558 51.3133 4.35576 51.0433 3.7039C50.4343 2.23373 49.2663 1.06569 47.7961 0.456726C47.1442 0.186718 46.4844 0.087711 45.8248 0.0427029C45.1983 -4.27378e-05 44.4413 -2.24343e-05 43.564 1.09881e-06H43.564H43.5ZM47.5 10V8C47.5 7.04076 47.4989 6.42148 47.4666 5.94752C47.4355 5.49153 47.3822 5.31786 47.3478 5.23464C47.1448 4.74458 46.7554 4.35523 46.2654 4.15224C46.1821 4.11777 46.0085 4.06454 45.5525 4.03342C45.0785 4.00109 44.4592 4 43.5 4C42.5408 4 41.9215 4.00109 41.4475 4.03342C40.9915 4.06454 40.8179 4.11777 40.7346 4.15224C40.2446 4.35523 39.8552 4.74458 39.6522 5.23464C39.6178 5.31786 39.5645 5.49153 39.5334 5.94752C39.5011 6.42148 39.5 7.04076 39.5 8V10H47.5ZM50.5357 15.085L43.2024 22.085C42.6227 22.6383 41.7106 22.6383 41.131 22.085L37.4643 18.585L39.5357 16.415L42.1667 18.9263L48.4643 12.915L50.5357 15.085ZM2 1.09881e-06C1.17157 1.09881e-06 0.5 0.671574 0.5 1.5V22.2984C0.5 22.5905 0.585257 22.8762 0.745308 23.1205L10.5184 38.0373C10.6269 38.2028 10.767 38.3453 10.9308 38.4564L24.7199 47.8133L30.7564 56.365C31.0375 56.7632 31.4945 57 31.9818 57H50C50.8284 57 51.5 56.3284 51.5 55.5V40.5027C51.5 40.0809 51.3224 39.6785 51.0107 39.3943L42.9013 32H35.5769L46.5 42L46.2192 41.9006L46.5 42.1595V52H33.7954L28.4375 44.4097C28.3334 44.2622 28.2036 44.1348 28.0543 44.0335L14.3173 34.7119L5.5 21.254V5H21.5V19.1127L26.5 23.6901V1.5C26.5 0.671575 25.8284 1.09881e-06 25 1.09881e-06H2Z" fill="#68707C"/></svg>