<svg xmlns="http://www.w3.org/2000/svg" xmlns:xlink="http://www.w3.org/1999/xlink" width="141.876" height="40.047" viewBox="0 0 141.876 40.047"><defs><style>.a{fill:#bf00ff;}.b{clip-path:url(#a);}</style><clipPath id="a"><rect class="a" width="141.876" height="40.047"/></clipPath></defs><g class="b"><path class="a" d="M75.312,13.4v6.119H70.752V39.508h-7.3l0-19.994h-2.8V13.4h2.8V5.6h7.306V13.4Zm37.616-.015h-7.184V39.508h7.184ZM109.337,1.532a3.949,3.949,0,0,0-2.9,1.2,3.948,3.948,0,0,0-1.2,2.9,3.859,3.859,0,0,0,1.2,2.873,4.211,4.211,0,0,0,5.826,0,3.906,3.906,0,0,0,1.17-2.873,4,4,0,0,0-1.17-2.9,3.925,3.925,0,0,0-2.926-1.2m7.324,37.98h7.391V26.45c0-4.471,2.392-6.193,4.992-6.384,2.711-.2,5.43.725,5.43,5.6V39.512h7.391l.011-15.9a12.55,12.55,0,0,0-.691-4.23,9.171,9.171,0,0,0-2.022-3.325,9.511,9.511,0,0,0-3.245-2.182,11.412,11.412,0,0,0-4.416-.8,9.37,9.37,0,0,0-4.682,1.17,12.676,12.676,0,0,0-3.3,2.554l-.682-3.407-6.193,0Zm-82.655,0H41.4V26.45c0-4.471,2.392-6.193,4.992-6.384,2.711-.2,5.429.725,5.429,5.6V39.512h7.391l.011-15.9a12.542,12.542,0,0,0-.692-4.23,9.17,9.17,0,0,0-2.022-3.325,9.514,9.514,0,0,0-3.245-2.182,11.414,11.414,0,0,0-4.416-.8,9.369,9.369,0,0,0-4.682,1.17,12.665,12.665,0,0,0-3.3,2.554l-.682-3.407-6.194,0Zm68.021-26.131V39.508H95.863l-.5-2.7a10.2,10.2,0,0,1-7.454,3.235c-6.893,0-12.481-6.421-12.481-13.884s5.588-13.139,12.481-13.139A10.629,10.629,0,0,1,95.645,16.2l.749-2.819ZM88.755,33.427c3.541,0,6.411-3.156,6.411-7.05s-2.87-7.049-6.411-7.049-6.411,3.156-6.411,7.049,2.87,7.05,6.411,7.05M0,0V5.659l12.648,13.83L.052,33.706v5.805l30.664,0V26.16h-6.87v6.162H10.674L21.825,19.3,10.408,6.921H23.343V12.29h6.87l0-12.29Z"/></g></svg>