<svg xmlns="http://www.w3.org/2000/svg" xmlns:xlink="http://www.w3.org/1999/xlink" viewBox="0 0 34.5 48"><path d="M 12.374 47.212 L 12.758 47.212 L 11.949 45.354 L 11.541 45.354 L 10.73 47.212 L 11.103 47.212 L 11.296 46.747 L 12.178 46.747 L 12.374 47.214 Z M 11.737 45.695 L 12.054 46.455 L 11.421 46.455 Z M 14.365 47.214 L 14.365 46.914 L 13.411 46.914 L 13.411 45.354 L 13.058 45.354 L 13.058 47.212 L 14.365 47.212 Z M 15.033 47.214 L 15.033 45.354 L 14.676 45.354 L 14.676 47.212 L 15.033 47.212 Z M 17.398 47.214 L 17.398 46.272 L 16.381 46.272 L 16.381 46.548 L 17.067 46.548 C 17.049 46.708 16.891 46.964 16.47 46.964 C 16.114 46.964 15.784 46.736 15.784 46.282 C 15.784 45.82 16.137 45.605 16.473 45.605 C 16.805 45.605 17.011 45.783 17.082 45.994 L 17.414 45.881 C 17.302 45.573 16.979 45.314 16.474 45.314 C 15.933 45.314 15.426 45.671 15.426 46.282 C 15.426 46.896 15.907 47.253 16.451 47.253 C 16.783 47.253 16.996 47.114 17.087 46.977 L 17.114 47.214 Z M 19.584 47.214 L 19.584 45.354 L 19.232 45.354 L 19.232 46.673 L 18.287 45.354 L 17.838 45.354 L 17.838 47.212 L 18.19 47.212 L 18.19 45.806 L 19.218 47.214 Z M 21.394 47.214 L 21.394 46.919 L 20.461 46.919 L 20.461 46.427 L 21.306 46.427 L 21.306 46.14 L 20.461 46.14 L 20.461 45.648 L 21.394 45.648 L 21.394 45.353 L 20.107 45.353 L 20.107 47.214 Z M 22.163 46.926 L 22.163 45.642 L 22.536 45.642 C 22.898 45.642 23.194 45.851 23.194 46.288 C 23.194 46.719 22.894 46.924 22.533 46.924 L 22.164 46.924 Z M 22.544 47.214 C 23.109 47.214 23.561 46.882 23.561 46.288 C 23.561 45.69 23.114 45.353 22.548 45.353 L 21.811 45.353 L 21.811 47.214 L 22.546 47.214 Z M 11.33 42.491 L 11.33 39.311 L 7.938 39.311 L 7.938 40.436 L 9.94 40.436 C 9.855 40.77 9.395 41.408 8.296 41.408 C 7.215 41.408 6.294 40.763 6.294 39.52 C 6.294 38.194 7.357 37.657 8.259 37.657 C 9.366 37.657 9.81 38.329 9.912 38.698 L 11.339 38.254 C 11.049 37.422 10.165 36.415 8.259 36.415 C 6.379 36.415 4.792 37.648 4.792 39.52 C 4.792 41.401 6.314 42.618 8.164 42.618 C 9.113 42.618 9.743 42.265 10.035 41.887 L 10.128 42.491 L 11.331 42.491 Z M 13.791 41.241 L 13.791 37.791 L 14.655 37.791 C 15.679 37.791 16.516 38.329 16.516 39.52 C 16.516 40.713 15.679 41.241 14.655 41.241 Z M 14.712 42.491 C 16.723 42.491 18.066 41.359 18.066 39.52 C 18.066 37.682 16.723 36.542 14.722 36.542 L 12.307 36.542 L 12.307 42.491 Z M 20.418 39.21 L 20.418 37.69 L 21.283 37.69 C 21.846 37.69 22.23 37.975 22.23 38.454 C 22.23 38.916 21.846 39.21 21.283 39.21 Z M 21.433 40.351 C 22.787 40.351 23.716 39.57 23.716 38.446 C 23.716 37.338 22.786 36.54 21.433 36.54 L 18.925 36.54 L 18.925 42.491 L 20.409 42.491 L 20.409 40.351 Z M 27.608 42.492 L 29.242 42.492 L 27.89 40.082 C 28.707 39.823 29.205 39.209 29.205 38.404 C 29.205 37.345 28.36 36.54 27.044 36.54 L 24.404 36.54 L 24.404 42.491 L 25.888 42.491 L 25.888 40.276 L 26.415 40.276 L 27.608 42.491 Z M 25.888 39.135 L 25.888 37.69 L 26.762 37.69 C 27.373 37.69 27.701 37.968 27.701 38.412 C 27.701 38.832 27.373 39.135 26.762 39.135 Z M 17.049 1.796 L 17.562 3.248 L 19.224 3.248 L 17.88 4.145 L 18.393 5.598 L 17.049 4.699 L 15.704 5.598 L 16.218 4.145 L 14.873 3.247 L 16.534 3.247 Z M 17.049 25.69 L 17.562 27.142 L 19.224 27.142 L 17.88 28.041 L 18.393 29.493 L 17.049 28.594 L 15.704 29.493 L 16.218 28.041 L 14.873 27.142 L 16.534 27.142 Z M 23.886 3.968 L 24.399 5.42 L 26.062 5.42 L 24.717 6.318 L 25.231 7.77 L 23.886 6.871 L 22.541 7.77 L 23.055 6.318 L 21.71 5.419 L 23.373 5.419 L 23.886 3.967 Z M 29.482 8.086 L 29.994 9.538 L 31.657 9.538 L 30.313 10.436 L 30.826 11.888 L 29.482 10.99 L 28.137 11.888 L 28.65 10.436 L 27.305 9.537 L 28.966 9.537 L 29.482 8.085 Z M 29.482 19.717 L 29.995 21.169 L 31.657 21.169 L 30.313 22.066 L 30.826 23.519 L 29.482 22.62 L 28.137 23.519 L 28.65 22.066 L 27.305 21.168 L 28.968 21.168 L 29.482 19.716 Z M 4.612 8.086 L 5.126 9.538 L 6.788 9.538 L 5.444 10.436 L 5.957 11.888 L 4.612 10.99 L 3.268 11.888 L 3.781 10.436 L 2.436 9.537 L 4.099 9.537 L 4.612 8.085 Z M 30.725 13.743 L 31.238 15.195 L 32.9 15.195 L 31.556 16.092 L 32.07 17.545 L 30.725 16.647 L 29.38 17.545 L 29.894 16.092 L 28.549 15.194 L 30.211 15.194 Z M 3.371 13.743 L 3.885 15.195 L 5.546 15.195 L 4.201 16.092 L 4.715 17.545 L 3.371 16.647 L 2.026 17.545 L 2.539 16.092 L 1.194 15.194 L 2.857 15.194 Z M 4.613 19.717 L 5.126 21.169 L 6.788 21.169 L 5.444 22.066 L 5.957 23.519 L 4.613 22.62 L 3.268 23.519 L 3.781 22.066 L 2.436 21.168 L 4.099 21.168 L 4.613 19.716 Z M 25.13 24.603 L 25.643 26.055 L 27.305 26.055 L 25.961 26.954 L 26.475 28.406 L 25.13 27.508 L 23.785 28.406 L 24.299 26.954 L 22.954 26.055 L 24.616 26.055 Z M 10.208 3.968 L 10.722 5.42 L 12.383 5.42 L 11.039 6.318 L 11.552 7.77 L 10.208 6.871 L 8.863 7.77 L 9.376 6.318 L 8.032 5.419 L 9.694 5.419 L 10.208 3.967 Z M 8.965 24.603 L 9.48 26.055 L 11.141 26.055 L 9.797 26.954 L 10.31 28.406 L 8.965 27.508 L 7.621 28.406 L 8.134 26.954 L 6.789 26.055 L 8.451 26.055 Z M 12.644 14.773 C 12.644 14.484 12.907 14.249 13.231 14.249 L 20.864 14.249 C 21.189 14.249 21.451 14.482 21.451 14.773 L 21.451 19.45 C 21.451 19.74 21.189 19.975 20.864 19.975 L 13.231 19.975 C 12.907 19.975 12.644 19.74 12.644 19.45 Z" fill="rgb(0,0,0)"></path><path d="M 16.249 18.425 L 15.091 17.472 C 15.029 17.427 14.993 17.355 14.993 17.279 C 14.993 17.203 15.029 17.131 15.091 17.086 C 15.229 16.979 15.422 16.978 15.561 17.083 L 15.562 17.086 L 16.526 17.874 L 18.827 15.985 C 18.965 15.88 19.156 15.88 19.295 15.984 L 19.299 15.985 C 19.361 16.031 19.397 16.103 19.397 16.18 C 19.397 16.257 19.361 16.33 19.299 16.375 L 16.803 18.423 C 16.64 18.548 16.415 18.549 16.251 18.426 L 16.249 18.423 Z" fill="rgb(0,0,0)"></path><path d="M 19.122 14.379 L 19.122 12.938 C 19.122 11.979 18.251 11.202 17.177 11.202 C 16.105 11.202 15.235 11.979 15.235 12.938 L 15.235 14.378" fill="transparent" stroke-width="2.46" stroke="rgb(0,0,0)" stroke-miterlimit="10" stroke-dasharray=""></path></svg>