<svg xmlns="http://www.w3.org/2000/svg" width="60" height="61" viewBox="0 0 60 61" fill="none" class="size-[52px] lg:size-[60px]"><g opacity="0.75"><path d="M49.9592 31.2188V41.1361H47.8624V33.209H47.8043L45.5332 34.6327V32.7732L47.9883 31.2188H49.9592Z" fill="#505967"/><path d="M40.1454 41.3548C39.3125 41.3516 38.5958 41.1466 37.9953 40.7398C37.3981 40.3331 36.9381 39.7439 36.6152 38.9723C36.2956 38.2008 36.1374 37.2726 36.1407 36.1879C36.1407 35.1065 36.3005 34.1848 36.6201 33.4229C36.9429 32.661 37.4029 32.0815 38.0002 31.6844C38.6006 31.2841 39.3157 31.084 40.1454 31.084C40.9751 31.084 41.6885 31.2841 42.2858 31.6844C42.8862 32.0848 43.3479 32.6659 43.6707 33.4277C43.9935 34.1864 44.1533 35.1065 44.1501 36.1879C44.1501 37.2759 43.9887 38.2056 43.6659 38.9772C43.3463 39.7488 42.8878 40.3379 42.2906 40.7447C41.6934 41.1515 40.9783 41.3548 40.1454 41.3548ZM40.1454 39.6164C40.7136 39.6164 41.1671 39.3307 41.5061 38.7593C41.8451 38.1879 42.013 37.3308 42.0097 36.1879C42.0097 35.4357 41.9323 34.8094 41.7773 34.3091C41.6256 33.8087 41.4093 33.4326 41.1284 33.1808C40.8508 32.929 40.5231 32.8031 40.1454 32.8031C39.5804 32.8031 39.1285 33.0855 38.7895 33.6505C38.4505 34.2154 38.2794 35.0613 38.2762 36.1879C38.2762 36.9498 38.3521 37.5858 38.5038 38.0959C38.6588 38.6027 38.8767 38.9836 39.1575 39.2387C39.4384 39.4905 39.7677 39.6164 40.1454 39.6164Z" fill="#505967"/><path d="M30.7567 41.3548C29.9238 41.3516 29.2071 41.1466 28.6067 40.7398C28.0094 40.3331 27.5494 39.7439 27.2266 38.9723C26.907 38.2008 26.7488 37.2726 26.752 36.1879C26.752 35.1065 26.9118 34.1848 27.2314 33.4229C27.5542 32.661 28.0143 32.0815 28.6115 31.6844C29.212 31.2841 29.927 31.084 30.7567 31.084C31.5864 31.084 32.2998 31.2841 32.8971 31.6844C33.4975 32.0848 33.9592 32.6659 34.282 33.4277C34.6049 34.1864 34.7647 35.1065 34.7614 36.1879C34.7614 37.2759 34.6 38.2056 34.2772 38.9772C33.9576 39.7488 33.4992 40.3379 32.9019 40.7447C32.3047 41.1515 31.5896 41.3548 30.7567 41.3548ZM30.7567 39.6164C31.3249 39.6164 31.7785 39.3307 32.1174 38.7593C32.4564 38.1879 32.6243 37.3308 32.6211 36.1879C32.6211 35.4357 32.5436 34.8094 32.3886 34.3091C32.2369 33.8087 32.0206 33.4326 31.7397 33.1808C31.4621 32.929 31.1344 32.8031 30.7567 32.8031C30.1918 32.8031 29.7398 33.0855 29.4008 33.6505C29.0619 34.2154 28.8908 35.0613 28.8875 36.1879C28.8875 36.9498 28.9634 37.5858 29.1151 38.0959C29.2701 38.6027 29.488 38.9836 29.7689 39.2387C30.0497 39.4905 30.379 39.6164 30.7567 39.6164Z" fill="#505967"/><path d="M19.3635 41.1361L23.4747 33.0008V32.933H18.6855V31.2188H25.6442V32.9572L21.5281 41.1361H19.3635Z" fill="#505967"/><path d="M10.382 41.1369V39.6261L13.9122 36.3574C14.2124 36.0669 14.4642 35.8054 14.6676 35.5729C14.8742 35.3405 15.0308 35.1129 15.1373 34.8902C15.2438 34.6642 15.2971 34.4204 15.2971 34.1589C15.2971 33.8684 15.2309 33.6182 15.0986 33.4084C14.9662 33.1953 14.7854 33.0323 14.5562 32.9193C14.327 32.8031 14.0671 32.7449 13.7766 32.7449C13.4731 32.7449 13.2084 32.8063 12.9824 32.929C12.7564 33.0516 12.5821 33.2276 12.4594 33.4568C12.3367 33.686 12.2754 33.9588 12.2754 34.2752H10.2852C10.2852 33.6263 10.432 33.0629 10.7258 32.5851C11.0196 32.1074 11.4312 31.7377 11.9606 31.4762C12.4901 31.2147 13.1002 31.084 13.7911 31.084C14.5013 31.084 15.1195 31.2099 15.6458 31.4617C16.1752 31.7103 16.5868 32.0557 16.8806 32.498C17.1744 32.9403 17.3212 33.4471 17.3212 34.0185C17.3212 34.393 17.247 34.7626 17.0985 35.1274C16.9532 35.4922 16.6933 35.8974 16.3189 36.3429C15.9444 36.7852 15.4165 37.3162 14.7354 37.9361L13.2875 39.3549V39.4227H17.452V41.1369H10.382Z" fill="#505967"/><path d="M42.9246 21.1783C42.9246 22.2597 42.7196 23.1798 42.3096 23.9385C41.9028 24.6971 41.3475 25.2766 40.6438 25.6769C39.9432 26.074 39.1555 26.2725 38.2806 26.2725C37.3993 26.2725 36.6084 26.0724 35.9078 25.6721C35.2073 25.2717 34.6536 24.6923 34.2469 23.9336C33.8401 23.175 33.6367 22.2565 33.6367 21.1783C33.6367 20.0968 33.8401 19.1767 34.2469 18.4181C34.6536 17.6594 35.2073 17.0815 35.9078 16.6844C36.6084 16.2841 37.3993 16.084 38.2806 16.084C39.1555 16.084 39.9432 16.2841 40.6438 16.6844C41.3475 17.0815 41.9028 17.6594 42.3096 18.4181C42.7196 19.1767 42.9246 20.0968 42.9246 21.1783ZM40.7987 21.1783C40.7987 20.4777 40.6938 19.8869 40.484 19.4059C40.2773 18.9249 39.9852 18.5601 39.6075 18.3115C39.2298 18.0629 38.7875 17.9386 38.2806 17.9386C37.7738 17.9386 37.3315 18.0629 36.9538 18.3115C36.5761 18.5601 36.2823 18.9249 36.0725 19.4059C35.8659 19.8869 35.7626 20.4777 35.7626 21.1783C35.7626 21.8788 35.8659 22.4696 36.0725 22.9506C36.2823 23.4316 36.5761 23.7964 36.9538 24.045C37.3315 24.2936 37.7738 24.4179 38.2806 24.4179C38.7875 24.4179 39.2298 24.2936 39.6075 24.045C39.9852 23.7964 40.2773 23.4316 40.484 22.9506C40.6938 22.4696 40.7987 21.8788 40.7987 21.1783Z" fill="#505967"/><path d="M30.2552 19.0718C30.2165 18.6812 30.0502 18.3777 29.7565 18.1614C29.4627 17.9451 29.064 17.837 28.5604 17.837C28.2182 17.837 27.9292 17.8854 27.6936 17.9822C27.4579 18.0758 27.2771 18.2066 27.1512 18.3745C27.0285 18.5423 26.9672 18.7328 26.9672 18.9459C26.9608 19.1234 26.9979 19.2784 27.0786 19.4108C27.1625 19.5431 27.2771 19.6577 27.4224 19.7546C27.5677 19.8482 27.7355 19.9305 27.926 20.0015C28.1165 20.0693 28.3199 20.1274 28.5362 20.1759L29.4272 20.3889C29.8598 20.4858 30.2569 20.6149 30.6184 20.7763C30.98 20.9377 31.2931 21.1363 31.5579 21.3719C31.8226 21.6076 32.0276 21.8853 32.1729 22.2049C32.3214 22.5245 32.3972 22.8909 32.4004 23.3041C32.3972 23.911 32.2423 24.4372 31.9356 24.8827C31.6321 25.325 31.1931 25.6688 30.6184 25.9142C30.047 26.1563 29.3578 26.2774 28.5507 26.2774C27.7501 26.2774 27.0528 26.1547 26.4588 25.9093C25.868 25.664 25.4063 25.3008 25.0738 24.8198C24.7445 24.3355 24.5718 23.7367 24.5557 23.0232H26.5847C26.6073 23.3557 26.7025 23.6334 26.8704 23.8561C27.0415 24.0757 27.2691 24.2419 27.5531 24.3549C27.8405 24.4647 28.1649 24.5195 28.5265 24.5195C28.8816 24.5195 29.1899 24.4679 29.4514 24.3646C29.7161 24.2613 29.9211 24.1176 30.0664 23.9336C30.2117 23.7496 30.2843 23.5381 30.2843 23.2992C30.2843 23.0765 30.2181 22.8893 30.0858 22.7375C29.9566 22.5858 29.7662 22.4567 29.5143 22.3501C29.2658 22.2436 28.9607 22.1467 28.5991 22.0596L27.5192 21.7884C26.6831 21.585 26.0229 21.267 25.5387 20.8344C25.0544 20.4018 24.8139 19.8191 24.8172 19.0863C24.8139 18.4858 24.9737 17.9612 25.2966 17.5125C25.6226 17.0638 26.0697 16.7135 26.6379 16.4617C27.2061 16.2099 27.8518 16.084 28.5749 16.084C29.311 16.084 29.9534 16.2099 30.5022 16.4617C31.0542 16.7135 31.4836 17.0638 31.7903 17.5125C32.097 17.9612 32.2552 18.481 32.2649 19.0718H30.2552Z" fill="#505967"/><path d="M17.959 17.9475V16.2188H23.5327V17.9475H17.959ZM17.959 26.1361V24.4073H23.5327V26.1361H17.959ZM21.7942 16.2188V26.1361H19.6974V16.2188H21.7942Z" fill="#505967"/><path fill-rule="evenodd" clip-rule="evenodd" d="M30 58.5C45.464 58.5 58 45.964 58 30.5C58 15.036 45.464 2.5 30 2.5C14.536 2.5 2 15.036 2 30.5C2 45.964 14.536 58.5 30 58.5ZM30 60.5C46.5685 60.5 60 47.0685 60 30.5C60 13.9315 46.5685 0.5 30 0.5C13.4315 0.5 0 13.9315 0 30.5C0 47.0685 13.4315 60.5 30 60.5Z" fill="#505967"/></g></svg>