<svg width="1194" height="446" viewBox="0 0 1194 446" fill="none" xmlns="http://www.w3.org/2000/svg">
<rect width="1194" height="446" fill="white"/>
<path d="M78.4526 294.564L67.1234 300.562C66.7802 302.543 67.0419 303.792 69.3448 306.56C72.2908 309.804 73.3892 311.697 77.5641 314.779L88.6711 319C94.384 318.84 97.5377 318.511 103.11 317.667C106.62 316.253 108.556 315.381 111.774 313.224C114.12 311.574 115.355 310.57 117.327 308.559C119.738 305.611 120.848 303.896 122.659 300.784L129.101 290.121C133.915 279.111 135.758 272.829 139.541 261.687L147.316 233.475L154.203 203.486L159.534 179.717C164.939 164.961 170.85 161.074 183.747 157.725H228.176L265.495 157.281C266.415 157.321 266.625 157.53 266.606 158.169L250.612 216.592L241.948 251.691L235.284 279.014L231.952 295.23L230.175 306.56C228.699 310.411 230.057 312.348 233.729 315.667H271.493C274.941 313.903 276.426 312.47 277.935 308.781L279.046 260.576L279.935 245.471L281.49 223.257L283.489 206.152L286.821 185.048L289.709 169.943L293.929 149.95L294.596 146.396L295.484 141.287L296.373 139.065L296.817 136.622V134.845L295.484 133.512H205.295L178.86 133.956L169.753 135.067L158.868 137.288L149.76 140.398L141.319 143.952L133.544 148.395L126.435 153.504L118.66 159.947L111.552 168.166L105.11 178.384L101.777 185.493L100.445 191.046L100 195.045L103.11 195.489L109.108 191.046L113.107 188.825L119.104 187.936C123.897 187.932 125.963 189.763 128.212 197.266L127.546 205.041L126.213 213.483L123.325 224.59L119.549 235.919L115.328 244.804L109.997 256.356L104.443 266.13L99.1117 274.127L94.0025 280.347L89.3375 285.456L84.8947 289.677L78.4526 294.564Z" fill="url(#paint0_linear_484_416)"/>
<path d="M363.936 285V159.177H413.577C423.12 159.177 431.25 160.999 437.968 164.645C444.685 168.249 449.804 173.266 453.327 179.697C456.89 186.086 458.672 193.459 458.672 201.814C458.672 210.17 456.87 217.542 453.265 223.932C449.661 230.321 444.439 235.297 437.599 238.861C430.8 242.424 422.567 244.206 412.901 244.206H381.261V222.887H408.601C413.72 222.887 417.939 222.006 421.257 220.245C424.615 218.443 427.114 215.965 428.752 212.811C430.431 209.617 431.271 205.951 431.271 201.814C431.271 197.636 430.431 193.991 428.752 190.878C427.114 187.725 424.615 185.288 421.257 183.567C417.898 181.806 413.638 180.926 408.478 180.926H390.538V285H363.936ZM499.835 286.782C493.814 286.782 488.448 285.737 483.738 283.648C479.028 281.519 475.301 278.385 472.557 274.249C469.853 270.071 468.502 264.869 468.502 258.643C468.502 253.401 469.464 248.998 471.389 245.435C473.314 241.871 475.936 239.004 479.253 236.833C482.571 234.663 486.339 233.024 490.558 231.918C494.817 230.812 499.282 230.034 503.951 229.584C509.439 229.01 513.863 228.478 517.221 227.986C520.58 227.454 523.017 226.676 524.532 225.652C526.048 224.628 526.806 223.112 526.806 221.105V220.737C526.806 216.846 525.577 213.835 523.119 211.706C520.703 209.576 517.262 208.511 512.798 208.511C508.088 208.511 504.34 209.555 501.555 211.644C498.77 213.692 496.927 216.272 496.026 219.385L471.819 217.419C473.048 211.685 475.465 206.729 479.069 202.551C482.673 198.333 487.322 195.097 493.015 192.844C498.749 190.551 505.384 189.404 512.921 189.404C518.163 189.404 523.181 190.018 527.973 191.247C532.806 192.476 537.086 194.38 540.813 196.961C544.581 199.541 547.551 202.859 549.722 206.913C551.892 210.927 552.978 215.74 552.978 221.351V285H528.157V271.914H527.42C525.904 274.863 523.877 277.464 521.338 279.716C518.798 281.928 515.747 283.669 512.184 284.939C508.62 286.167 504.504 286.782 499.835 286.782ZM507.33 268.719C511.18 268.719 514.58 267.961 517.529 266.446C520.478 264.89 522.792 262.801 524.471 260.179C526.15 257.558 526.99 254.589 526.99 251.271V241.257C526.171 241.789 525.044 242.281 523.611 242.731C522.218 243.141 520.641 243.53 518.88 243.899C517.119 244.226 515.358 244.533 513.597 244.82C511.835 245.066 510.238 245.291 508.804 245.496C505.733 245.946 503.05 246.663 500.756 247.646C498.463 248.629 496.681 249.96 495.411 251.64C494.141 253.278 493.507 255.326 493.507 257.783C493.507 261.347 494.797 264.07 497.377 265.954C499.998 267.798 503.316 268.719 507.33 268.719ZM586.062 320.388C582.744 320.388 579.631 320.122 576.723 319.589C573.856 319.098 571.481 318.463 569.596 317.685L575.494 298.148C578.566 299.09 581.331 299.602 583.788 299.683C586.287 299.765 588.437 299.192 590.239 297.963C592.082 296.734 593.577 294.646 594.724 291.697L596.26 287.703L562.408 190.633H589.932L609.469 259.934H610.452L630.173 190.633H657.882L621.204 295.199C619.442 300.277 617.046 304.701 614.016 308.469C611.026 312.278 607.237 315.207 602.65 317.254C598.062 319.343 592.533 320.388 586.062 320.388ZM698.369 159.177V285H671.766V159.177H698.369ZM745.936 230.444V285H719.764V190.633H744.708V207.282H745.813C747.902 201.794 751.404 197.452 756.319 194.257C761.234 191.022 767.194 189.404 774.197 189.404C780.751 189.404 786.464 190.837 791.338 193.704C796.212 196.572 800.001 200.667 802.704 205.992C805.407 211.275 806.759 217.583 806.759 224.915V285H780.587V229.584C780.628 223.809 779.153 219.303 776.163 216.068C773.173 212.791 769.057 211.153 763.815 211.153C760.292 211.153 757.179 211.91 754.476 213.426C751.814 214.941 749.725 217.153 748.209 220.061C746.735 222.928 745.977 226.389 745.936 230.444ZM877.581 190.633V210.292H820.751V190.633H877.581ZM833.653 168.024H859.825V256.002C859.825 258.418 860.194 260.302 860.931 261.654C861.668 262.965 862.692 263.886 864.003 264.419C865.355 264.951 866.911 265.217 868.672 265.217C869.901 265.217 871.13 265.115 872.358 264.91C873.587 264.664 874.529 264.48 875.185 264.357L879.301 283.833C877.99 284.242 876.147 284.713 873.772 285.246C871.396 285.819 868.508 286.167 865.109 286.29C858.801 286.536 853.272 285.696 848.521 283.771C843.811 281.846 840.145 278.856 837.524 274.801C834.902 270.747 833.612 265.627 833.653 259.442V168.024ZM936.622 286.843C926.915 286.843 918.559 284.877 911.555 280.945C904.593 276.972 899.227 271.361 895.459 264.111C891.691 256.821 889.807 248.199 889.807 238.246C889.807 228.539 891.691 220.02 895.459 212.689C899.227 205.357 904.531 199.643 911.371 195.548C918.252 191.452 926.321 189.404 935.577 189.404C941.803 189.404 947.598 190.407 952.964 192.414C958.37 194.38 963.081 197.35 967.095 201.323C971.149 205.296 974.303 210.292 976.556 216.313C978.809 222.293 979.935 229.297 979.935 237.325V244.513H900.251V228.294H955.299C955.299 224.525 954.479 221.187 952.841 218.279C951.203 215.371 948.93 213.098 946.022 211.46C943.155 209.781 939.816 208.941 936.007 208.941C932.034 208.941 928.512 209.862 925.44 211.706C922.409 213.508 920.034 215.945 918.313 219.017C916.593 222.047 915.713 225.426 915.672 229.154V244.574C915.672 249.244 916.532 253.278 918.252 256.677C920.013 260.077 922.491 262.698 925.686 264.541C928.881 266.385 932.669 267.306 937.052 267.306C939.96 267.306 942.622 266.897 945.039 266.077C947.455 265.258 949.524 264.029 951.244 262.391C952.964 260.753 954.275 258.746 955.176 256.37L979.382 257.968C978.153 263.784 975.634 268.863 971.825 273.204C968.057 277.505 963.183 280.863 957.203 283.28C951.264 285.655 944.404 286.843 936.622 286.843ZM1023.19 159.177V285H997.014V159.177H1023.19ZM1070.32 159.177V285H1044.15V159.177H1070.32ZM1091.29 285V190.633H1117.46V285H1091.29ZM1104.44 178.468C1100.55 178.468 1097.21 177.178 1094.42 174.598C1091.68 171.976 1090.31 168.843 1090.31 165.198C1090.31 161.593 1091.68 158.501 1094.42 155.921C1097.21 153.299 1100.55 151.989 1104.44 151.989C1108.33 151.989 1111.65 153.299 1114.39 155.921C1117.18 158.501 1118.57 161.593 1118.57 165.198C1118.57 168.843 1117.18 171.976 1114.39 174.598C1111.65 177.178 1108.33 178.468 1104.44 178.468Z" fill="#082832"/>
<defs>
<linearGradient id="paint0_linear_484_416" x1="297" y1="134" x2="67" y2="347" gradientUnits="userSpaceOnUse">
<stop stop-color="#082832"/>
<stop offset="1" stop-color="#187A98"/>
</linearGradient>
</defs>
</svg>
